<?xml version="1.0" encoding="UTF-8" standalone="no"?>
<svg
   width="128"
   height="128"
   version="1.0"
   id="svg182"
   sodipodi:docname="icon.svg"
   xml:space="preserve"
   inkscape:version="1.2.2 (b0a8486541, 2022-12-01)"
   inkscape:export-filename="icon.png"
   inkscape:export-xdpi="133.56523"
   inkscape:export-ydpi="133.56523"
   xmlns:inkscape="http://www.inkscape.org/namespaces/inkscape"
   xmlns:sodipodi="http://sodipodi.sourceforge.net/DTD/sodipodi-0.dtd"
   xmlns:xlink="http://www.w3.org/1999/xlink"
   xmlns="http://www.w3.org/2000/svg"
   xmlns:svg="http://www.w3.org/2000/svg"><sodipodi:namedview
     id="namedview184"
     pagecolor="#ffffff"
     bordercolor="#000000"
     borderopacity="0.25"
     inkscape:showpageshadow="2"
     inkscape:pageopacity="0.0"
     inkscape:pagecheckerboard="0"
     inkscape:deskcolor="#d1d1d1"
     showgrid="false"
     inkscape:zoom="3.4149007"
     inkscape:cx="49.19616"
     inkscape:cy="54.760011"
     inkscape:window-width="1440"
     inkscape:window-height="835"
     inkscape:window-x="0"
     inkscape:window-y="33"
     inkscape:window-maximized="1"
     inkscape:current-layer="svg182" /><defs
     id="defs160"><linearGradient
       id="e"><stop
         offset="0"
         stop-color="#5e5c64"
         id="stop117" /><stop
         offset=".572"
         stop-color="#3d3846"
         id="stop119" /><stop
         offset="1"
         stop-color="#241f31"
         id="stop121" /></linearGradient><linearGradient
       id="d"><stop
         offset="0"
         stop-color="#77767b"
         id="stop124" /><stop
         offset=".05"
         stop-color="#c0bfbc"
         id="stop126" /><stop
         offset=".1"
         stop-color="#9a9996"
         id="stop128" /><stop
         offset=".9"
         stop-color="#9a9996"
         id="stop130" /><stop
         offset=".95"
         stop-color="#c0bfbc"
         id="stop132" /><stop
         offset="1"
         stop-color="#77767b"
         id="stop134" /></linearGradient><linearGradient
       id="a"><stop
         offset="0"
         stop-color="#d5d3cf"
         id="stop137" /><stop
         offset="1"
         stop-color="#f6f5f4"
         id="stop139" /></linearGradient><linearGradient
       id="b"><stop
         offset="0"
         stop-color="#d5d3cf"
         id="stop142" /><stop
         offset="1"
         stop-color="#949390"
         id="stop144" /></linearGradient><linearGradient
       id="c"><stop
         offset="0"
         stop-color="#9a9996"
         id="stop147" /><stop
         offset="1"
         stop-color="#77767b"
         id="stop149" /></linearGradient><linearGradient
       xlink:href="#d"
       id="g"
       gradientUnits="userSpaceOnUse"
       gradientTransform="matrix(0.19643,0,0,0.3421,-365.403,445.74)"
       x1="88.596"
       y1="-449.394"
       x2="536.596"
       y2="-449.394" /><linearGradient
       id="f"><stop
         offset="0"
         stop-color="#f6d32d"
         id="stop153" /><stop
         offset="1"
         stop-color="#f9f06b"
         id="stop155" /></linearGradient><radialGradient
       xlink:href="#e"
       id="i"
       gradientUnits="userSpaceOnUse"
       gradientTransform="matrix(0.17784,0.04765,-0.04766,0.17786,-40.002,207.808)"
       cx="265.282"
       cy="65.436"
       fx="265.282"
       fy="65.436"
       r="56" /><linearGradient
       xlink:href="#f"
       id="h"
       x1="99.846"
       y1="91.301"
       x2="431.139"
       y2="91.301"
       gradientUnits="userSpaceOnUse"
       gradientTransform="matrix(0.13281,0,0,0.13281,190.74,-76.125)" /></defs><g
     transform="matrix(1.0454545,0,0,1,-0.90909091,-172)"
     id="g180"><g
       transform="translate(368)"
       id="g166"><rect
         style="display:none;fill:url(#g);marker:none"
         width="88"
         height="104"
         x="-348"
         y="188"
         rx="8"
         ry="8"
         fill="url(#g)"
         id="rect162"
         sodipodi:insensitive="true" /><rect
         ry="8"
         rx="8"
         y="180"
         x="-348"
         height="92"
         width="88"
         style="marker:none"
         fill="#deddda"
         id="rect164" /></g><rect
       ry="34"
       rx="34"
       y="192"
       x="30"
       height="68"
       width="68"
       style="marker:none"
       fill="#5e5c64"
       id="rect168" /><circle
       style="marker:none"
       cx="64"
       cy="226"
       r="28"
       fill="#241f31"
       id="circle170" /><circle
       cy="226"
       cx="64"
       style="marker:none"
       r="24"
       fill="#3d3846"
       id="circle172" /><circle
       transform="rotate(90)"
       cy="-64"
       cx="226"
       style="display:none;fill:url(#h);marker:none"
       r="22"
       fill="url(#h)"
       id="circle174" /><ellipse
       style="display:none;marker:none"
       cx="63.988998"
       cy="226.095"
       rx="10.011"
       ry="10.012"
       id="ellipse176" /><circle
       style="display:none;fill:url(#i);marker:none"
       cx="3.2909999"
       cy="234.952"
       transform="rotate(-15)"
       fill="url(#i)"
       id="ellipse178"
       r="8.0109997" /></g><path
     fill="#5865f2"
     d="m 76.91794,45.366747 a 26.014674,22.632422 0 0 0 -6.489443,-1.736982 17.828031,15.51015 0 0 0 -0.831282,1.470085 24.166555,21.024584 0 0 0 -7.20197,0 17.904726,15.576876 0 0 0 -0.831282,-1.470085 26.197754,22.7917 0 0 0 -6.49439,1.741287 c -4.106931,5.28628 -5.220254,10.441263 -4.663592,15.523066 v 0 a 26.15817,22.757262 0 0 0 7.95903,3.476117 19.223397,16.724101 0 0 0 1.704623,-2.391311 16.927475,14.72668 0 0 1 -2.684348,-1.114941 c 0.225139,-0.142061 0.44533,-0.288421 0.658099,-0.430478 a 18.696423,16.26564 0 0 0 15.913113,0 c 0.215242,0.15282 0.435434,0.299183 0.658098,0.430478 a 16.9918,14.782642 0 0 1 -2.689296,1.117094 19.050214,16.573434 0 0 0 1.704623,2.389157 26.039415,22.653947 0 0 0 7.963978,-3.473965 v 0 C 82.247051,55.003015 80.478103,49.895385 76.91794,45.366747 Z m -16.1432,12.402094 c -1.551232,0 -2.832791,-1.224712 -2.832791,-2.731388 0,-1.506676 1.237027,-2.74215 2.827842,-2.74215 1.590817,0 2.862481,1.235474 2.835267,2.74215 -0.02722,1.506676 -1.249398,2.731388 -2.830318,2.731388 z m 10.450403,0 c -1.553706,0 -2.830318,-1.224712 -2.830318,-2.731388 0,-1.506676 1.237026,-2.74215 2.830318,-2.74215 1.59329,0 2.855058,1.235474 2.827842,2.74215 -0.02722,1.506676 -1.246922,2.731388 -2.827842,2.731388 z"
     id="path453"
     style="stroke-width:0.230762" /></svg>
